<svg xmlns="http://www.w3.org/2000/svg" width="160" height="46"><g fill="none" fill-rule="evenodd"><path fill="#B6B6B6" fill-rule="nonzero" d="M148.606 0H9.99c-.36 0-.722 0-1.087.014-.795.01-1.588.078-2.372.203a8.08 8.08 0 00-2.256.708A7.631 7.631 0 002.356 2.26 7.136 7.136 0 00.97 4.093 7.251 7.251 0 00.23 6.25a14.115 14.115 0 00-.213 2.262C0 8.859 0 9.205 0 9.552v26.745c0 .36 0 .692.017 1.044.01.759.08 1.516.212 2.264.131.75.38 1.478.741 2.156a7.032 7.032 0 001.393 1.826c.56.54 1.208.991 1.918 1.335.71.346 1.47.588 2.256.719.783.115 1.574.175 2.365.18.365 0 .726.012 1.087.012h139.9c.36 0 .731 0 1.092-.013.793-.01 1.584-.076 2.367-.2a8.346 8.346 0 002.256-.718 7.386 7.386 0 001.914-1.333 7.225 7.225 0 001.399-1.826 7.229 7.229 0 00.733-2.156c.132-.749.205-1.505.22-2.264v-1.044V10.78 9.545v-1.04a14.8 14.8 0 00-.22-2.266 7.236 7.236 0 00-.733-2.157 7.493 7.493 0 00-3.31-3.157 8.2 8.2 0 00-2.257-.708 16.056 16.056 0 00-2.375-.2c-.36 0-.731-.013-1.092-.015L148.606 0z"/><path fill="#000" fill-rule="nonzero" d="M9.997 44.852c-.361 0-.715 0-1.072-.013a15.78 15.78 0 01-2.213-.18 7.263 7.263 0 01-1.96-.62 6.428 6.428 0 01-1.654-1.15 6.054 6.054 0 01-1.208-1.58 6.27 6.27 0 01-.642-1.875c-.119-.7-.182-1.41-.188-2.12 0-.24-.018-1.033-.018-1.033V9.552s.01-.781.018-1.011c.007-.71.07-1.417.188-2.117.113-.655.33-1.29.643-1.881A6.118 6.118 0 013.093 2.96 6.631 6.631 0 014.75 1.797a7.108 7.108 0 011.957-.607 15.478 15.478 0 012.22-.18L9.998.995h139.882l1.081.015c.737.007 1.473.067 2.2.18a7.295 7.295 0 011.978.62 6.487 6.487 0 012.858 2.738c.309.587.523 1.216.633 1.865.123.706.192 1.42.207 2.135v28.774a14.044 14.044 0 01-.201 2.098 6.34 6.34 0 01-.64 1.888 6.257 6.257 0 01-1.203 1.569 6.388 6.388 0 01-1.656 1.155c-.622.301-1.287.511-1.974.624-.732.112-1.472.172-2.213.18-.346 0-.709.012-1.062.012H9.997v.004z"/><path fill="#FFF" fill-rule="nonzero" d="M59.298 30.982h-5.549l-1.357 3.549h-2.444l5.432-13.249h2.306l5.558 13.249h-2.559l-1.387-3.55zm-4.85-1.797h4.137l-1.483-3.795c-.203-.522-.404-1.101-.602-1.736-.18.56-.373 1.133-.583 1.718l-1.468 3.813zm9.902-2.106c0-.73-.025-1.536-.075-2.415h2.218c.083.416.14.836.173 1.258.918-.959 1.97-1.438 3.157-1.438 1.448-.022 2.766.797 3.333 2.07.361.719.542 1.629.542 2.73a6.49 6.49 0 01-.619 2.952 4.281 4.281 0 01-1.726 1.856c-.778.43-1.665.65-2.564.633a6.552 6.552 0 01-2.068-.34v4.068l-2.364.192-.007-11.566zm6.214 5.042c.48-.618.722-1.522.722-2.712 0-1.103-.2-1.902-.598-2.398a1.935 1.935 0 00-1.593-.746 2.674 2.674 0 00-1.273.31c-.41.224-.784.505-1.109.833v5.284c.263.118.54.206.824.26.304.064.615.096.926.096.92 0 1.62-.309 2.1-.927zm4.642-5.042c0-.73-.026-1.536-.077-2.415h2.22c.083.416.14.836.171 1.258.92-.959 1.972-1.438 3.157-1.438 1.449-.023 2.768.796 3.335 2.07.359.719.539 1.629.54 2.73a6.49 6.49 0 01-.617 2.952 4.285 4.285 0 01-1.728 1.856c-.777.431-1.664.65-2.562.633a6.552 6.552 0 01-2.069-.34v4.068l-2.37.2V27.079zm6.214 5.042c.48-.618.721-1.522.721-2.712 0-1.103-.199-1.902-.597-2.398a1.935 1.935 0 00-1.593-.746 2.67 2.67 0 00-1.273.31 4.74 4.74 0 00-1.109.833v5.284c.262.118.538.206.822.26.305.064.616.096.928.096.923 0 1.624-.309 2.104-.927h-.003zm7.593 1.782a5.603 5.603 0 01-2.354-2.318c-.547-1.006-.821-2.194-.821-3.565 0-1.487.313-2.75.94-3.79a5.985 5.985 0 012.578-2.335 8.359 8.359 0 013.658-.782 10.135 10.135 0 014.306.942l-.604 1.737a8.662 8.662 0 00-3.596-.858 5.22 5.22 0 00-2.531.589 4.092 4.092 0 00-1.692 1.732 5.866 5.866 0 00-.602 2.762c-.016.859.14 1.713.463 2.515.29.71.802 1.316 1.464 1.738.666.425 1.506.639 2.52.64a8.67 8.67 0 001.378-.11c.44-.068.872-.175 1.292-.32v-2.686h-3.197v-1.763h5.5v5.57c-.798.356-1.633.629-2.491.815-.853.186-1.724.28-2.599.282a7.644 7.644 0 01-3.612-.795zm17.215.628a8.214 8.214 0 01-.162-1.309c-.396.439-.879.798-1.421 1.057a4.389 4.389 0 01-1.976.433 3.88 3.88 0 01-1.62-.332 2.659 2.659 0 01-1.163-1.007 2.973 2.973 0 01-.427-1.64 2.766 2.766 0 011.082-2.291c.72-.57 1.922-.854 3.606-.856.629 0 1.257.043 1.88.13v-.192c0-.872-.194-1.487-.583-1.844-.389-.357-.947-.537-1.675-.54a6.853 6.853 0 00-1.617.211c-.517.122-1.02.29-1.504.503l-.376-1.646a9.35 9.35 0 011.665-.503 10.036 10.036 0 012.181-.228 5.946 5.946 0 012.275.388c.636.269 1.154.74 1.465 1.335.351.63.526 1.48.526 2.546v3.923c0 .408.025 1.026.078 1.856l-2.234.006zm-1.41-1.828a3.778 3.778 0 001.205-.84V30.03a16.04 16.04 0 00-1.577-.1c-.976 0-1.65.15-2.023.452a1.484 1.484 0 00-.564 1.22c0 .49.135.849.406 1.079.307.25.702.378 1.105.359a3.455 3.455 0 001.448-.338zm5.625-.539v-11.66l2.354-.18v11.438c0 .42.075.72.224.898a.895.895 0 00.714.26c.21-.01.419-.043.62-.1l.28 1.617a4.291 4.291 0 01-.819.205c-.302.05-.607.076-.914.077-1.639-.005-2.459-.856-2.459-2.555zm5.885 0v-11.66l2.352-.18v11.438c0 .42.075.72.226.898a.889.889 0 00.712.26c.211-.01.42-.043.623-.1l.276 1.617a4.248 4.248 0 01-.818.205c-.302.05-.607.076-.914.077-1.64-.005-2.458-.856-2.457-2.555zm13.986-2.278h-6.755c.11 2.066 1.14 3.1 3.091 3.1.5-.003 1-.06 1.487-.17.5-.11.987-.262 1.46-.452l.516 1.545a9.146 9.146 0 01-3.893.803c-1.097 0-2.022-.198-2.776-.593a3.903 3.903 0 01-1.692-1.71 5.846 5.846 0 01-.564-2.696 6.114 6.114 0 01.602-2.816 4.259 4.259 0 011.679-1.796 4.87 4.87 0 012.482-.622c.975 0 1.79.218 2.444.654a3.938 3.938 0 011.453 1.741c.323.767.481 1.588.466 2.415v.597zm-2.306-1.438c-.044-.787-.252-1.376-.62-1.77a1.947 1.947 0 00-1.484-.59 2.032 2.032 0 00-1.504.596c-.4.395-.66.983-.78 1.764h4.388zm4.21-1.306c0-.543-.026-1.369-.076-2.478h2.21c.039.275.074.602.11.983.036.38.058.692.071.929.238-.385.508-.75.809-1.093.26-.292.574-.535.927-.718.372-.191.789-.287 1.21-.279.318-.006.634.03.94.11l-.296 1.956a2.681 2.681 0 00-.766-.1 2.6 2.6 0 00-1.455.406 5.765 5.765 0 00-1.329 1.339v6.337h-2.356v-7.392zm7.616 11.424a6.054 6.054 0 01-.85-.196l.428-1.645c.16.04.361.082.604.122.227.039.457.059.688.06 1.045 0 1.83-.642 2.354-1.929l.152-.36-3.807-9.947h2.536l1.912 5.56c.25.715.451 1.445.604 2.185.178-.72.389-1.432.632-2.14l1.94-5.612h2.38l-3.796 9.994a10.014 10.014 0 01-1.158 2.286c-.37.539-.875.982-1.468 1.288a4.564 4.564 0 01-2.044.42 6.757 6.757 0 01-1.107-.086z"/><path fill="#C8102E" d="M32.403 8.34H19.054c-6.287 0-8.584 2.197-8.584 8.204v12.758c0 6.007 2.297 8.205 8.584 8.205h13.35c6.285 0 8.588-2.198 8.588-8.205V16.544c-.006-6.007-2.303-8.204-8.589-8.204z"/><path fill="#FFF" fill-rule="nonzero" d="M16.517 22.923h.81v3.813h-.81v-1.55H14.69v1.55h-.809v-3.813h.809v1.538h1.827v-1.538zm4.561 2.183c0 .62-.323.95-.908.95s-.912-.34-.912-.977v-2.156h-.808v2.181c0 1.078.622 1.687 1.71 1.687 1.09 0 1.727-.627 1.727-1.72v-2.155h-.809v2.19zm9.354.438l-.904-2.621h-.662l-.906 2.621-.886-2.62h-.863l1.391 3.812h.67l.908-2.503.906 2.503h.677l1.387-3.811h-.838l-.88 2.62zm3.174-.449h1.472v-.693h-1.472v-.782h2.137v-.694h-2.936v3.808h3.008v-.695h-2.21v-.944zm3.179 1.635h.799v-3.807h-.799v3.807zm-13.298-.79l-.361.794h-.828l1.758-3.811h.715l1.75 3.81h-.848l-.359-.793h-1.827zm.3-.687h1.219l-.615-1.365-.603 1.365zm1.945-7.184c-2.804 0-5.077-2.172-5.077-4.851h.718c-.032 1.51.792 2.918 2.154 3.682a4.537 4.537 0 004.414 0c1.363-.764 2.187-2.173 2.154-3.682h.719a4.745 4.745 0 01-1.49 3.432 5.199 5.199 0 01-3.592 1.42zm25.524-1.82a2.79 2.79 0 01-1.146-1.152 3.607 3.607 0 01-.397-1.726 3.717 3.717 0 01.423-1.808 2.903 2.903 0 011.218-1.195 3.942 3.942 0 011.88-.422 3.667 3.667 0 011.78.408c.49.266.884.665 1.135 1.146.27.534.404 1.123.39 1.716a3.74 3.74 0 01-.426 1.827A2.924 2.924 0 0154.9 16.24c-.57.29-1.21.436-1.857.42a3.644 3.644 0 01-1.787-.41zm3.06-.796c.332-.215.591-.52.742-.877.17-.404.253-.838.244-1.274.01-.43-.063-.858-.214-1.263a1.882 1.882 0 00-.694-.879 2.14 2.14 0 00-1.227-.327 2.155 2.155 0 00-1.219.333 2.032 2.032 0 00-.752.898c-.17.39-.252.81-.244 1.233-.009.43.07.856.23 1.258.144.356.395.663.721.884a2.14 2.14 0 001.205.325c.426.015.847-.093 1.207-.31zM58.933 10.979h-2.119l.104-.943h5.315l-.109.943h-2.01v5.592h-1.181zM68.593 16.57h-1.331l-2.034-2.874h-.809v2.875H63.24v-6.535h1.18v2.695h.618l1.417-1.95c.164-.248.376-.463.625-.634.238-.14.514-.21.793-.201.243-.004.484.04.709.125l-.248.89a1.022 1.022 0 00-.376-.077.622.622 0 00-.356.1 1.292 1.292 0 00-.293.311l-1.26 1.714 2.544 3.562zm.903-6.534h1.84c.866 0 1.529.168 1.988.506.458.338.688.825.69 1.461.008.399-.1.792-.312 1.136a2.009 2.009 0 01-.863.744c-.397.179-.831.268-1.27.26a5.085 5.085 0 01-.896-.091v2.515h-1.181l.004-6.531zm2.959 2.918c.26-.24.398-.578.376-.924 0-.402-.128-.694-.376-.87a1.988 1.988 0 00-1.128-.267h-.641v2.32c.224.038.45.06.679.068.393.024.782-.093 1.09-.327zm3.83 3.295a2.78 2.78 0 01-1.147-1.152 3.607 3.607 0 01-.397-1.726 3.737 3.737 0 01.421-1.808 2.903 2.903 0 011.219-1.195 3.946 3.946 0 011.88-.422 3.662 3.662 0 011.778.408c.49.265.886.664 1.136 1.146.271.534.406 1.122.393 1.716a3.74 3.74 0 01-.427 1.827 2.925 2.925 0 01-1.218 1.195c-.571.29-1.21.436-1.858.42a3.644 3.644 0 01-1.78-.409zm3.057-.796c.337-.215.6-.521.752-.88.168-.406.248-.84.237-1.276a3.395 3.395 0 00-.218-1.258 1.882 1.882 0 00-.694-.879 2.128 2.128 0 00-1.228-.327 2.153 2.153 0 00-1.216.333 2.048 2.048 0 00-.752.898c-.17.39-.256.81-.25 1.233-.006.43.074.857.237 1.258.143.356.394.664.722.884.356.225.776.339 1.203.325.426.015.846-.094 1.207-.31zm8.237 1.118v-3.594c0-.452.017-.97.05-1.552L84.2 16.57h-1.317v-6.535h1.096v3.732c0 .406-.013.85-.043 1.331l3.384-5.063h1.356v6.535h-1.096zm-2.664-7.103a1.438 1.438 0 01-.564-.487 1.573 1.573 0 01-.249-.642h.85c.09.482.388.719.888.719s.797-.24.893-.719h.853c-.034.23-.12.45-.252.645-.14.207-.334.375-.564.487a2.352 2.352 0 01-1.848 0l-.007-.003zM91.794 10.979h-2.111l.103-.943h5.321l-.109.943h-2.023v5.592h-1.181zM96.1 10.036h4.027l-.103.925H97.28v1.797h2.578v.869H97.28v2.006h2.881l-.1.94H96.1zM108.392 13.342a1.543 1.543 0 01.786 1.382c.007.341-.093.677-.286.965-.206.29-.496.515-.835.648a3.39 3.39 0 01-1.316.234h-2.231v-6.535h2.133c.724 0 1.266.134 1.629.402.359.26.562.671.543 1.102.012.353-.112.699-.348.972-.239.264-.555.455-.908.548.295.039.578.135.833.282zm-2.728-.635h.737c.225.005.448-.043.649-.14.178-.084.328-.215.432-.377a.936.936 0 00.15-.521.67.67 0 00-.302-.6 1.635 1.635 0 00-.882-.198h-.784v1.836zm1.978 2.746c.234-.212.363-.508.356-.816a1.074 1.074 0 00-.394-.801 1.967 1.967 0 00-1.15-.284h-.79v2.192h.887c.487-.006.85-.103 1.09-.29z"/></g></svg>
