<svg width="147" height="43" viewBox="0 0 147 43" fill="none" xmlns="http://www.w3.org/2000/svg">
<rect x="0.5" y="0.5" width="146" height="42" rx="6.5" fill="#E9E9E9" stroke="black"/>
<path d="M47.5891 28.4819H48.0317V16.9391H46.6488V22.3417L46.7963 25.6423L39.2916 16.9575H38.8122V28.4635H40.1767V22.9318L40.066 19.7787L47.5891 28.4819ZM58.2469 25.6239L59.593 28.4635H61.0128V28.2791L55.7023 16.9022H55.0754L49.7096 28.2791V28.4635H51.1479L52.4939 25.6239H58.2469ZM55.3704 19.0596L57.7859 24.4438H52.9549L55.3704 19.0596ZM61.7319 25.3289C61.8056 27.689 64.2211 28.7216 66.3601 28.6663C68.4437 28.611 70.8223 27.7259 70.8223 25.2551C70.8223 22.7105 68.6834 22.2864 66.397 22.0283C64.9956 21.8439 63.3361 21.7886 63.3361 20.0737C63.3361 18.5617 64.9218 18.027 66.1757 17.9901C67.4849 17.9901 69.0337 18.4511 69.1628 19.9078H70.4535C70.3798 17.6767 68.1302 16.6994 66.1388 16.7547C64.1105 16.7547 61.9531 17.8242 61.9531 20.0922C61.9531 22.397 64.0552 22.9318 66.1388 23.153C67.7061 23.3743 69.4394 23.3928 69.4394 25.2551C69.3841 26.933 67.6877 27.4125 66.3232 27.4678C64.9034 27.4678 63.1332 26.8777 63.041 25.3289H61.7134H61.7319ZM81.9411 28.4635V16.9575H80.5581V21.807H74.4732V16.9575H73.1088V28.4635H74.4732V23.0609H80.5581V28.4635H81.9411ZM86.9749 24.9416C85.9792 24.9416 85.1126 24.9416 84.1353 24.9416C84.0615 30.0124 93.447 29.8833 93.447 25.0338C93.447 22.1573 91.2159 21.8623 88.9294 21.6042C87.8969 21.4935 87.0302 21.3091 87.104 20.4425C87.1962 19.078 90.2939 18.949 90.2939 20.4794C91.2896 20.4794 92.0456 20.4794 93.0967 20.4794C93.1704 15.5193 84.2091 15.5193 84.3197 20.4794C84.3566 22.9871 85.9976 23.8353 88.5054 24.0197C89.6486 24.0934 90.6074 24.2225 90.6074 25.0154C90.6074 26.3614 87.0118 26.3983 87.0118 24.9416H86.9749ZM97.2823 19.5759V28.4635C98.2596 28.4635 99.2184 28.4635 100.196 28.4635V19.5759H103.017C103.017 18.6908 103.017 17.8242 103.017 16.9391H94.4612C94.4612 17.8057 94.4612 18.6908 94.4612 19.5759H97.2823ZM115.943 22.7105C115.943 14.7449 104.123 14.7449 104.123 22.7105C104.123 30.6946 115.943 30.6946 115.943 22.7105ZM107.166 22.7105C107.166 18.5617 112.937 18.5617 112.937 22.7105C112.937 26.8962 107.166 26.8962 107.166 22.7105ZM125.642 24.37C128.555 22.397 127.725 16.9575 123.208 16.9391C121.53 16.9391 119.815 16.9391 118.155 16.9391C118.155 20.7929 118.155 24.6282 118.155 28.445C119.114 28.445 120.11 28.445 121.106 28.445V25.0523H122.636L124.609 28.445H127.891V28.021L125.642 24.37ZM123.208 22.4155H121.106C121.106 21.4935 121.106 20.5163 121.106 19.5759C121.788 19.5759 122.525 19.5574 123.208 19.5759C124.886 19.5943 124.812 22.4155 123.208 22.4155ZM136.852 16.9391C134.16 16.9391 132.335 16.9391 129.661 16.9391C129.661 20.756 129.661 24.6097 129.661 28.445C132.335 28.445 134.308 28.445 137 28.445C137 27.5784 137 26.6933 137 25.8267C135.267 25.8267 134.289 25.8267 132.593 25.8267C132.593 25.1445 132.593 24.4807 132.593 23.7984H136.502C136.502 22.9318 136.502 22.0467 136.502 21.1801H132.593V19.5574C134.289 19.5574 135.138 19.5574 136.852 19.5574C136.852 18.6724 136.852 17.7873 136.852 16.9207V16.9391Z" fill="#434242"/>
<path d="M28.5416 13.3619C28.6338 13.2144 28.5232 13.0116 28.3388 13.0116H24.5219C24.3375 13.0116 24.2269 13.196 24.3191 13.3619L26.2183 16.6625C26.3105 16.81 26.5318 16.81 26.624 16.6625L28.5416 13.3619Z" fill="#AE2B30"/>
<path d="M24.5035 31.8747C24.4113 32.0222 24.5219 32.2251 24.7063 32.2251H28.5232C28.7076 32.2251 28.8182 32.0407 28.726 31.8747L26.8084 28.5741C26.7162 28.4266 26.4949 28.4266 26.4027 28.5741L24.485 31.8747H24.5035Z" fill="#AE2B30"/>
<path d="M31.3812 17.1604C31.5656 17.1604 31.6762 16.976 31.5841 16.81L29.6664 13.5094C29.5742 13.3619 29.3529 13.3619 29.2607 13.5094L27.3431 16.81C27.2509 16.9575 27.3615 17.1604 27.5459 17.1604H31.3628H31.3812Z" fill="#AE2B30"/>
<path d="M29.2608 21.4935C29.353 21.641 29.5742 21.641 29.6664 21.4935L31.5841 18.1929C31.6763 18.0454 31.5656 17.8426 31.3812 17.8426H27.5644C27.38 17.8426 27.2693 18.027 27.3615 18.1929L29.2792 21.4935H29.2608Z" fill="#AE2B30"/>
<path d="M34.2577 22.1573C34.4421 22.1573 34.5527 21.973 34.4605 21.807L32.5429 18.5064C32.4507 18.3589 32.2294 18.3589 32.1372 18.5064L30.2196 21.807C30.1274 21.9545 30.238 22.1573 30.4224 22.1573H34.2393H34.2577Z" fill="#AE2B30"/>
<path d="M32.1557 26.4905C32.2479 26.638 32.4691 26.638 32.5613 26.4905L34.479 23.1899C34.5712 23.0424 34.4606 22.8396 34.2762 22.8396H30.4593C30.2749 22.8396 30.1643 23.024 30.2565 23.1899L32.1741 26.4905H32.1557Z" fill="#AE2B30"/>
<path d="M27.3615 26.8224C27.2693 26.9699 27.38 27.1728 27.5644 27.1728H31.3812C31.5656 27.1728 31.6763 26.9884 31.5841 26.8224L29.6664 23.5218C29.5742 23.3743 29.353 23.3743 29.2608 23.5218L27.3431 26.8224H27.3615Z" fill="#AE2B30"/>
<path d="M29.2608 31.4875C29.353 31.635 29.5742 31.635 29.6664 31.4875L31.5841 28.1869C31.6763 28.0394 31.5656 27.8365 31.3812 27.8365H27.5644C27.38 27.8365 27.2693 28.0209 27.3615 28.1869L29.2792 31.4875H29.2608Z" fill="#AE2B30"/>
<path d="M20.9632 13.1591C21.0554 13.0116 20.9447 12.8087 20.7603 12.8087H16.9435C16.7591 12.8087 16.6484 12.9931 16.7406 13.1591L18.6398 16.4597C18.732 16.6072 18.9533 16.6072 19.0455 16.4597L20.9632 13.1591Z" fill="#363789"/>
<path d="M16.6485 31.8563C16.5563 32.0038 16.6669 32.2066 16.8513 32.2066H20.6682C20.8526 32.2066 20.9632 32.0222 20.871 31.8563L18.9533 28.5557C18.8611 28.4082 18.6399 28.4082 18.5477 28.5557L16.63 31.8563H16.6485Z" fill="#363789"/>
<path d="M23.7475 17.1419C23.9319 17.1419 24.0425 16.9575 23.9503 16.7916L22.0327 13.491C21.9405 13.3435 21.7192 13.3435 21.627 13.491L19.7093 16.7916C19.6172 16.9391 19.7278 17.1419 19.9122 17.1419H23.7291H23.7475Z" fill="#363789"/>
<path d="M21.627 21.4567C21.7192 21.6042 21.9405 21.6042 22.0327 21.4567L23.9503 18.1561C24.0425 18.0086 23.9319 17.8057 23.7475 17.8057H19.9306C19.7462 17.8057 19.6356 17.9901 19.7278 18.1561L21.6454 21.4567H21.627Z" fill="#363789"/>
<path d="M26.624 22.1389C26.8083 22.1389 26.919 21.9545 26.8268 21.7886L24.9091 18.488C24.8169 18.3405 24.5957 18.3405 24.5035 18.488L22.5858 21.7886C22.4936 21.9361 22.6043 22.1389 22.7886 22.1389H26.6055H26.624Z" fill="#363789"/>
<path d="M24.5219 26.4536C24.6141 26.6011 24.8354 26.6011 24.9276 26.4536L26.8452 23.153C26.9374 23.0055 26.8268 22.8027 26.6424 22.8027H22.8255C22.6411 22.8027 22.5305 22.9871 22.6227 23.153L24.5404 26.4536H24.5219Z" fill="#363789"/>
<path d="M19.7278 26.7855C19.6356 26.9331 19.7462 27.1359 19.9306 27.1359H23.7475C23.9319 27.1359 24.0425 26.9515 23.9503 26.7855L22.0327 23.485C21.9405 23.3375 21.7192 23.3375 21.627 23.485L19.7093 26.7855H19.7278Z" fill="#363789"/>
<path d="M21.627 31.4506C21.7192 31.5981 21.9405 31.5981 22.0327 31.4506L23.9503 28.15C24.0425 28.0025 23.9319 27.7997 23.7475 27.7997H19.9306C19.7462 27.7997 19.6356 27.9841 19.7278 28.15L21.6454 31.4506H21.627Z" fill="#363789"/>
<path d="M13.6245 13.03C13.7166 12.8825 13.606 12.6797 13.4216 12.6797H9.60474C9.42035 12.6797 9.30972 12.8641 9.40191 13.03L11.3011 16.3306C11.3933 16.4781 11.6146 16.4781 11.7068 16.3306L13.6245 13.03Z" fill="#D9DADA"/>
<path d="M9.03314 31.7272C8.94094 31.8747 9.05158 32.0775 9.23597 32.0775H13.0528C13.2372 32.0775 13.3479 31.8932 13.2557 31.7272L11.338 28.4266C11.2458 28.2791 11.0246 28.2791 10.9324 28.4266L9.0147 31.7272H9.03314Z" fill="#D9DADA"/>
<path d="M16.5194 17.0129C16.7038 17.0129 16.8144 16.8285 16.7222 16.6625L14.8045 13.3619C14.7124 13.2144 14.4911 13.2144 14.3989 13.3619L12.4812 16.6625C12.389 16.81 12.4997 17.0129 12.6841 17.0129H16.5009H16.5194Z" fill="#D9DADA"/>
<path d="M14.0117 21.3276C14.1039 21.4751 14.3251 21.4751 14.4173 21.3276L16.335 18.027C16.4272 17.8795 16.3166 17.6767 16.1322 17.6767H12.3153C12.1309 17.6767 12.0203 17.8611 12.1125 18.027L14.0301 21.3276H14.0117Z" fill="#D9DADA"/>
<path d="M19.0087 22.0099C19.1931 22.0099 19.3037 21.8255 19.2115 21.6595L17.2938 18.3589C17.2016 18.2114 16.9804 18.2114 16.8882 18.3589L14.9705 21.6595C14.8783 21.807 14.989 22.0099 15.1733 22.0099H18.9902H19.0087Z" fill="#D9DADA"/>
<path d="M16.9066 26.3246C16.9988 26.4721 17.2201 26.4721 17.3123 26.3246L19.2299 23.024C19.3221 22.8765 19.2115 22.6736 19.0271 22.6736H15.2102C15.0258 22.6736 14.9152 22.858 15.0074 23.024L16.925 26.3246H16.9066Z" fill="#D9DADA"/>
<path d="M12.1125 26.6565C12.0203 26.804 12.1309 27.0068 12.3153 27.0068H16.1322C16.3166 27.0068 16.4272 26.8224 16.335 26.6565L14.4173 23.3559C14.3251 23.2084 14.1039 23.2084 14.0117 23.3559L12.094 26.6565H12.1125Z" fill="#D9DADA"/>
<path d="M14.0117 31.3216C14.1039 31.4691 14.3251 31.4691 14.4173 31.3216L16.335 28.021C16.4272 27.8735 16.3166 27.6706 16.1322 27.6706H12.3153C12.1309 27.6706 12.0203 27.855 12.1125 28.021L14.0301 31.3216H14.0117Z" fill="#D9DADA"/>
</svg>
